<svg xmlns="http://www.w3.org/2000/svg" viewBox="0 0 1147.95 352.58"><g id="Layer_2" data-name="Layer 2"><g id="Layer_2-2" data-name="Layer 2"><path d="M233.36,131.79V116.36s17.35-14.15,34.07-25.72,23.78-33.43-2.57-38.57S238.5,41.79,238.5,37.29,274.5,0,274.5,0H201.21l-99,108.64H88.71L77.79,136.93h-55v11.89l6.11,6.11v8.36L21.86,173.9H0v14.46l3.86,4.5v5.78L47.57,216l4.5,77.79H66.86l2.57-70.08,34.07,12.22v57.86h-9v10.92l-14.79,2.58,40.5,15.42,14.15-2.57V310.5l26.18-49.73,5.32,91.81h20.57V253.93l48.21-27.64,5.15,54h14.78l4.5-72,32.14-17.36V138.21C278.36,131.79,233.36,131.79,233.36,131.79Zm-9.48-11.74V132H182.25A149.59,149.59,0,0,0,223.88,120.05ZM117.32,296.68l-6.11-2.25V238.18l6.11,2.57Zm-3-73.61L13.5,185.14H39.21L126,213.75ZM131,300.55l-1.14-1V244.29L158,252.07Zm97-140.69H151.07l8.57-16.29h39s10.93-1.93,16.93-1.93S228,141,228,150.43Zm31.5,43.28-7.29,4.07V159.86l7.29-4.07Zm29.36-15-6,3.65v-46.5l6-3.65Z"/><path d="M588,137.21l-.26-.28.13-1.52.29-.28a12.55,12.55,0,0,0,3.34-.63,1.45,1.45,0,0,0,.58-.49,17.45,17.45,0,0,0,1.59-4.11q2.08-6.84,4.12-14.71l4.06-15.77a48.81,48.81,0,0,0,1.49-7.06,2.37,2.37,0,0,0-1.19-2.14c-.79-.5-2.45-.78-5-.85l-.26-.28.13-1.51.3-.28q3.3.18,5.93.18c1.71,0,3.34-.06,4.9-.18l9.93,41.44,15.27-28.58q2.86-5.39,6.39-12.86c2.6.19,4.44.28,5.52.28s3-.09,5.32-.28l.22.28-.13,1.51-.29.28-2.07.28a5.68,5.68,0,0,0-2.11.48,1.77,1.77,0,0,0-.68.84,10.85,10.85,0,0,0-.44,2.35q-.21,1.82-.65,6.57t-.66,8.24l-.95,14.11q-.48,7.42-.48,9.52c0,1.38.31,2.26.94,2.62s2.2.61,4.74.75l.29.32-.17,1.48-.29.28a74.81,74.81,0,0,0-8.2-.35c-2.94,0-5.86.11-8.76.35l-.23-.28.1-1.52.29-.28c2.94,0,4.68-.34,5.22-.94s.93-2.68,1.17-6.22l2.14-32.66q-1.65,2.59-9.15,16.5t-11.28,21.67l-2.4,4.78h-1.5l-9.86-41q-8.6,32.17-8.59,35.68a1.93,1.93,0,0,0,.4,1.35,2.07,2.07,0,0,0,1.27.58c.57.1,1.84.19,3.81.28l.23.28-.1,1.52-.29.28-1.17-.07q-4.38-.21-6.65-.21Q592.26,136.93,588,137.21Z"/><path d="M651,137.21l-.23-.28.23-1.55.29-.25,1.88-.31a3.59,3.59,0,0,0,1.1-.32,2.22,2.22,0,0,0,.62-.59c.22-.29.7-1,1.46-2.25s1.75-2.89,3-5l.72-1.13,22.44-38.45h3L691,129.48a21,21,0,0,0,.81,4.28,1.6,1.6,0,0,0,1.07.92c.48.11,1.71.27,3.7.45l.2.28-.26,1.52-.29.28q-4.54-.28-7.82-.28c-1.47,0-4.06.09-7.75.28l-.23-.28.23-1.52.29-.28c2.68-.11,4.21-.29,4.59-.52a1.66,1.66,0,0,0,.57-1.51c0-.19-.16-2-.46-5.41l-1.26-10.4H668.19l-4.57,8.22c-.44.77-1.12,2.09-2.06,3.94s-1.48,3-1.63,3.35a3,3,0,0,0-.21.93.94.94,0,0,0,.64.89,21.1,21.1,0,0,0,4.75.48l.19.28-.22,1.55-.3.28q-3.75-.28-7.07-.28Q655,136.93,651,137.21Zm18.81-22.66h14.27l-2.46-20.4Z"/><path d="M716.46,135.41l-.17,1.52-.29.28-2.07-.07q-5.1-.21-6.46-.21-3.35,0-7.2.28l-.23-.28.1-1.52.32-.28a21.85,21.85,0,0,0,3.47-.35,1.49,1.49,0,0,0,.49-.24,1.92,1.92,0,0,0,.33-.39,7.89,7.89,0,0,0,.71-1.86c.24-1,.8-4.09,1.69-9.31l2.1-12.46,1.92-12.16q.87-6,.87-7.27a1.19,1.19,0,0,0-.73-1.24,20.52,20.52,0,0,0-4.49-.48l-.22-.28.16-1.51.29-.28,2.4.07c3.42.14,5.64.21,6.68.21q3.07,0,6.65-.28l.23.28-.1,1.51-.29.28a21.06,21.06,0,0,0-3.89.42,1.63,1.63,0,0,0-.49.43,4.08,4.08,0,0,0-.49,1.3q-.81,3.3-2.62,14.15l-2.63,16.5q-1.53,10-1.53,11.38a1.16,1.16,0,0,0,.33.9,3.13,3.13,0,0,0,1.55.44c.83.09,2,.17,3.41.24Z"/><path d="M722.23,137.21l-.26-.28.13-1.55.29-.28a9,9,0,0,0,3.6-.62c.5-.31,1-1.38,1.51-3.19s1.63-7.92,3.36-18.32L734,93.1a7.22,7.22,0,0,0-2.67-3,12.33,12.33,0,0,0-4.5-.74l-.19-.28.1-1.51.29-.28c1.58.16,3.51.25,5.8.25a43.76,43.76,0,0,0,4.61-.25c.22.49.91,1.89,2.08,4.18l2.36,4.6L760,129.45l5-32.42.51-4.25c.09-.7.13-1.15.13-1.33a1.47,1.47,0,0,0-.6-1.36,8.85,8.85,0,0,0-3-.58l-1.59-.14-.26-.28.13-1.51.26-.28c1.5.07,3.81.11,7,.11s5.52,0,6.84-.11l.23.28-.1,1.51-.26.28c-2.66.17-4.13.5-4.4,1s-.93,3.64-2,9.4l-2.34,12.82L763.42,126q-.87,5.47-1.59,11.9h-3.3c-.22-.49-.79-1.66-1.72-3.51l-2-3.93L736.31,96.5l-3.21,19-1.27,9q-.95,6.67-.94,8.11a2.17,2.17,0,0,0,.78,2,8.33,8.33,0,0,0,3.57.52c.3,0,.69,0,1.16.07l.23.25-.13,1.51-.29.32c-2.32-.19-4.67-.28-7.07-.28Q726.35,136.93,722.23,137.21Z"/><path d="M791.64,137.17l-.26-.24.17-1.52.26-.28a10.64,10.64,0,0,0,2.1-.52,2.3,2.3,0,0,0,.64-.67,8.33,8.33,0,0,0,.76-2.25q.42-1.75,2.14-11.76l2-12,1.17-7.69c.71-5.23,1.07-8.2,1.07-8.93a1.72,1.72,0,0,0-.35-1.24A2.36,2.36,0,0,0,800,89.6c-.67-.08-1.85-.16-3.54-.23l-.22-.31.16-1.48.32-.28q4,.28,9.67.28a61.24,61.24,0,0,0,6.71-.28l.26.28-.16,1.51-.26.32a42.74,42.74,0,0,0-4.36.49,1.56,1.56,0,0,0-.65.4,2.13,2.13,0,0,0-.41.83q-.48,1.44-1.91,9.9l-3.89,24.76q-.78,5.34-.88,8a59,59,0,0,0,6.75.42c2.74,0,4.93,0,6.55-.12a27.47,27.47,0,0,0,3.86-.41,5.06,5.06,0,0,0,1.77-.54,2.4,2.4,0,0,0,.6-.72,15,15,0,0,0,.81-2.46l1.2-4.53.29-.28h1.4l.26.32c-.83,5.5-1.33,9.3-1.53,11.41l-.29.28L811,137l-14.95-.1A41.05,41.05,0,0,0,791.64,137.17Z"/><path d="M843.8,135.41l-.16,1.52-.29.28-2.08-.07c-3.39-.14-5.55-.21-6.45-.21q-3.35,0-7.21.28l-.22-.28.09-1.52.33-.28a22.18,22.18,0,0,0,3.47-.35,1.49,1.49,0,0,0,.49-.24,2.3,2.3,0,0,0,.32-.39,7.47,7.47,0,0,0,.71-1.86c.24-1,.8-4.09,1.69-9.31l2.11-12.46,1.91-12.16q.88-6,.88-7.27a1.19,1.19,0,0,0-.73-1.24,20.62,20.62,0,0,0-4.49-.48l-.23-.28.16-1.51.29-.28,2.4.07q5.13.21,6.69.21,3.07,0,6.65-.28l.22.28-.09,1.51-.3.28a21.06,21.06,0,0,0-3.89.42,1.76,1.76,0,0,0-.49.43,3.9,3.9,0,0,0-.48,1.3q-.81,3.3-2.63,14.15l-2.63,16.5q-1.51,10-1.52,11.38a1.19,1.19,0,0,0,.32.9,3.22,3.22,0,0,0,1.56.44c.82.09,2,.17,3.41.24Z"/><path d="M849.57,137.21l-.26-.28.13-1.55.3-.28a9,9,0,0,0,3.6-.62c.49-.31,1-1.38,1.51-3.19s1.62-7.92,3.35-18.32l3.12-19.87a7.17,7.17,0,0,0-2.68-3,12.26,12.26,0,0,0-4.49-.74l-.2-.28.1-1.51.29-.28c1.58.16,3.52.25,5.81.25a43.57,43.57,0,0,0,4.6-.25c.22.49.91,1.89,2.08,4.18l2.37,4.6,18.16,33.37,5-32.42.52-4.25c.08-.7.13-1.15.13-1.33a1.47,1.47,0,0,0-.6-1.36,8.85,8.85,0,0,0-3-.58l-1.59-.14-.26-.28.13-1.51.26-.28q2.24.11,6.94.11,4.86,0,6.84-.11l.23.28-.1,1.51-.26.28c-2.66.17-4.12.5-4.39,1s-.94,3.64-2,9.4l-2.33,12.82L890.77,126q-.88,5.47-1.59,11.9h-3.31c-.22-.49-.79-1.66-1.72-3.51l-2-3.93L863.65,96.5l-3.21,19-1.26,9q-.95,6.67-.95,8.11a2.17,2.17,0,0,0,.78,2,8.33,8.33,0,0,0,3.57.52c.3,0,.69,0,1.17.07l.23.25-.13,1.51-.3.32q-3.46-.28-7.07-.28Q853.69,136.93,849.57,137.21Z"/><path d="M903.13,137.21l-.23-.28.1-1.52.32-.28a11.38,11.38,0,0,0,2.63-.49,1.28,1.28,0,0,0,.39-.38,8.41,8.41,0,0,0,.91-2.57q.39-1.65,2.46-13.91l2.6-16q1.4-9.14,1.39-10.75a1.46,1.46,0,0,0-.29-1,2.55,2.55,0,0,0-1.43-.45c-.75-.09-1.92-.18-3.5-.25l-.2-.28.17-1.51.29-.28c2.1.19,4.34.28,6.74.28q17.07,0,22.58-.28l.26.28c-.06.54-.26,2-.58,4.36l-.62,6.11-.26.28h-1.13l-.26-.28q-.33-5.34-.44-5.92a1.46,1.46,0,0,0-.59-.93,9.28,9.28,0,0,0-3.17-.62c-1.81-.17-3.65-.26-5.54-.26a50.66,50.66,0,0,0-6.29.32q-1.29,6.08-3.34,19.31c2.16.07,4.09.11,5.77.11q4.43,0,10.81-.46l.22.35-1.23,3.34q-7.56-.39-11.58-.39c-1,0-2.53,0-4.48.07l-2,12.82q-.89,5.55-1.11,7.83c3,.29,5.88.43,8.7.43s5.07-.09,7-.25a14.4,14.4,0,0,0,3.48-.54,2.23,2.23,0,0,0,1-1,19.11,19.11,0,0,0,1-3.43c.31-1.26.58-2.28.81-3l.3-.28h1.36l.23.28a38.69,38.69,0,0,0-1,5.49q-.51,4-.6,5.64l-.42.32-22.58-.28Q906.21,136.93,903.13,137.21Z"/><path d="M899.45,295.18l-.54,2a10,10,0,0,1-1.31.27,24.74,24.74,0,0,0-3.17.75,4.28,4.28,0,0,0-1.86,1.23,6.58,6.58,0,0,0-1.2,2.06c-.3.82-.76,2.25-1.39,4.29q-1.92,6-2.7,8.66c-.53,1.79-.93,3.18-1.21,4.18s-.93,3.29-1.93,6.9a35.51,35.51,0,0,1-2.91,7.5,20.75,20.75,0,0,1-4.11,5.51,16,16,0,0,1-5.59,3.36,21.53,21.53,0,0,1-7.27,1.16,17.62,17.62,0,0,1-8.49-1.77,10.72,10.72,0,0,1-4.62-4.51,12.72,12.72,0,0,1-1.39-5.81,24.5,24.5,0,0,1,.36-4.08c.25-1.42.72-3.43,1.42-6s1.63-6,2.82-10.16c.24-.92.49-1.82.73-2.7s.49-1.75.71-2.6.51-2,.87-3.43l.44-1.38a4.17,4.17,0,0,1,.07-.47,4.58,4.58,0,0,0,.06-.67.85.85,0,0,0-.47-.84,13,13,0,0,0-1.88-.55c-1-.23-1.73-.4-2.31-.49l-1.62-.4.58-2,5,.3c1.18.07,2.8.1,4.83.1,2.2,0,3.94,0,5.22-.1l5-.3-.47,2a43.38,43.38,0,0,0-5.8,1.39,3.46,3.46,0,0,0-1.72,1.9c-.44,1.19-1.34,4-2.68,8.46q-2.19,7.29-3.21,11t-1.44,5.91a23,23,0,0,0-.42,4.34,8.52,8.52,0,0,0,1.34,5,7.58,7.58,0,0,0,3.56,2.8,13.19,13.19,0,0,0,4.93.88,14,14,0,0,0,6.35-1.33,11.63,11.63,0,0,0,4.43-3.89,28.12,28.12,0,0,0,3.14-6.21q1.36-3.64,3.07-9.69,2.55-9,3.65-13a30.89,30.89,0,0,0,1.09-4.92,1.44,1.44,0,0,0-.86-1.23A15,15,0,0,0,883,297.5a7.93,7.93,0,0,1-1.44-.34l.54-2q5.13.4,8.79.4A80.06,80.06,0,0,0,899.45,295.18Z"/><path d="M897.67,326.87h2.75c-.07,1.17-.12,2.12-.15,2.84s0,1.29,0,1.7c0,2.53.62,4.38,1.85,5.57a7.66,7.66,0,0,0,3.41,1.86,14.07,14.07,0,0,0,3.4.46,8.68,8.68,0,0,0,5.29-1.51,8.6,8.6,0,0,0,2.91-3.7A11.14,11.14,0,0,0,918,330a10.37,10.37,0,0,0-1.68-5.92,28.43,28.43,0,0,0-4.23-4.89c-2.55-2.41-4.37-4.2-5.46-5.35a16.54,16.54,0,0,1-2.55-3.49,8,8,0,0,1-.92-3.72,10.33,10.33,0,0,1,1.93-5.87A14.42,14.42,0,0,1,910.6,296a18.48,18.48,0,0,1,8.39-1.82,21.68,21.68,0,0,1,4.82.5,23.48,23.48,0,0,1,3.61,1.06c.91.37,2.09.9,3.52,1.59q-1.14,3.47-1.54,5.07c-.27,1.08-.6,2.71-1,4.9l-.16,1H925.6q.07-3.72-.06-5.49a5.68,5.68,0,0,0-.71-2.63,5.92,5.92,0,0,0-2.87-2.33,10.27,10.27,0,0,0-4.21-.89,9.35,9.35,0,0,0-4.3,1,8.13,8.13,0,0,0-3.11,2.66,6.35,6.35,0,0,0-1.12,3.69,6.94,6.94,0,0,0,1.39,4.1,62.48,62.48,0,0,0,6,6.48,47.63,47.63,0,0,1,6.14,6.91,10.59,10.59,0,0,1,1.72,6,13.68,13.68,0,0,1-2.1,7.1,16.24,16.24,0,0,1-6.11,5.78A19,19,0,0,1,906.8,343a25.08,25.08,0,0,1-12.56-3.43q.94-2.93,1.41-4.47c.32-1,.63-2.19.94-3.49S897.27,328.75,897.67,326.87Z"/><path d="M960,295.18l-.64,2.05a2,2,0,0,1-.37.08l-.62.1a1.7,1.7,0,0,0-.39.09,16.91,16.91,0,0,0-4.26,1.15,3.42,3.42,0,0,0-1.51,1.67c-.61,1.52-1.46,4.05-2.57,7.6s-2.22,7.27-3.34,11.15-2,7.1-2.62,9.65c0,.11-.39,1.58-1.11,4.4s-1.07,4.33-1.07,4.53a1,1,0,0,0,.4.84,31.82,31.82,0,0,0,4.93,1.31l1.11.2-.6,2-4-.2c-2.19-.09-4.21-.13-6-.13q-4.47,0-10.11.33l.61-2A1,1,0,0,0,928,340l.54-.1c.22,0,.45-.07.67-.12a19.92,19.92,0,0,0,3.93-1,4,4,0,0,0,1.51-1.28q.76-1.17,3.09-9.06c.07-.27.47-1.7,1.22-4.3s1.22-4.22,1.4-4.87q.71-2.52,1.52-5.39c.55-1.91,1-3.4,1.23-4.45,1.21-4.34,2-7.3,2.32-8.86a3,3,0,0,0,.16-.94.9.9,0,0,0-.57-.91,22.58,22.58,0,0,0-2.63-.72c-1.54-.37-2.58-.61-3.14-.72l.54-2.05q5.43.4,9.83.4Q955.69,295.58,960,295.18Z"/><path d="M991.41,331.54l1.65,2.18a73,73,0,0,1-10.51,6.92,21.16,21.16,0,0,1-9.87,2.39,13.49,13.49,0,0,1-8.63-2.66,14.92,14.92,0,0,1-4.82-6.46,20.86,20.86,0,0,1-1.46-7.47,31.32,31.32,0,0,1,2.37-11.95A34.26,34.26,0,0,1,966.78,304a31.75,31.75,0,0,1,9.76-7.23,26.06,26.06,0,0,1,11.35-2.6,27.41,27.41,0,0,1,12.92,3.29q-.87,2.31-1.67,4.95c-.54,1.76-1.15,4.12-1.82,7.1l-2.55-.17c.09-1.7.13-3.34.13-4.93,0-2.11-.3-3.55-.9-4.34a5.68,5.68,0,0,0-2.94-2,12.81,12.81,0,0,0-4.15-.69,16.31,16.31,0,0,0-8.49,2.43,26.19,26.19,0,0,0-7.19,6.48,32.82,32.82,0,0,0-4.92,9.12,30.11,30.11,0,0,0-1.79,10,14.94,14.94,0,0,0,1.49,6.85,11,11,0,0,0,4,4.46,10,10,0,0,0,5.37,1.55,17.29,17.29,0,0,0,7.71-1.87A67.94,67.94,0,0,0,991.41,331.54Z"/><path d="M668.32,285.9a23.8,23.8,0,0,1,1.83-9.06,27.82,27.82,0,0,1,5-8,24.31,24.31,0,0,1,7.24-5.61,18.23,18.23,0,0,1,8.33-2.07,10.88,10.88,0,0,1,8.21,3.2q3.06,3.21,3.06,9.44a25.7,25.7,0,0,1-7.07,17.84,24.12,24.12,0,0,1-7.33,5.25,19.78,19.78,0,0,1-8.31,1.87q-4.59,0-7-2.37a11.07,11.07,0,0,1-3.18-5.22A20.69,20.69,0,0,1,668.32,285.9Zm5.15-.57a14.33,14.33,0,0,0,1,5.59,8.31,8.31,0,0,0,2.91,3.74,7.55,7.55,0,0,0,4.42,1.3,10.71,10.71,0,0,0,7.49-3.31,23.67,23.67,0,0,0,5.54-8.47,27,27,0,0,0,2.07-10.12,14.52,14.52,0,0,0-1-5.83,7.71,7.71,0,0,0-2.82-3.52,7.17,7.17,0,0,0-4-1.15,10.37,10.37,0,0,0-5.93,2,19.22,19.22,0,0,0-5,5.19,27.5,27.5,0,0,0-3.41,7.09A24.47,24.47,0,0,0,673.47,285.33Z"/><path d="M709.15,263.4l.42-1.52c2.79.2,5.48.31,8.07.31,2.89,0,5.3,0,7.21,0s3.84,0,5.78-.08,4.23-.1,6.87-.2a68.47,68.47,0,0,0-2.3,9.46h-1.89c0-.62.06-1.19.08-1.73s0-1,.05-1.33,0-.85,0-1.49c0-1-.18-1.66-.55-1.89a4.51,4.51,0,0,0-2.08-.33H719.06L715.18,278c3.34,0,5.49,0,6.43-.09a3.82,3.82,0,0,0,2-.53q.93-.61,2.43-4.24h1.86q-1.23,3.6-2.09,6.67c-.57,2.06-1.11,4.15-1.6,6.29h-1.82s.07-.44.16-1.22a29.43,29.43,0,0,0,.26-3.1,1.22,1.22,0,0,0-.71-1.27,16,16,0,0,0-4.05-.28h-3.49q-1.24,4.37-2.51,9.14a48.32,48.32,0,0,0-1.27,5.37c0,.32.11.52.34.59s1.81.41,4.81,1l1.16.15-.41,1.53c-.91-.05-2-.11-3.29-.16-1.75-.07-3.42-.1-5-.1-2.57,0-5.44.09-8.63.26l.44-1.53.32,0,.74-.11a25,25,0,0,0,2.94-.69,2.45,2.45,0,0,0,1.21-.85,7.4,7.4,0,0,0,.86-2q.6-1.79,1.92-6.34l2.22-7.63q.62-2.15,1.58-5.61c.64-2.31,1.12-4.14,1.46-5.49a19.75,19.75,0,0,0,.5-2.29c0-.37-.23-.66-.69-.89a14.66,14.66,0,0,0-3.16-.82A8.23,8.23,0,0,1,709.15,263.4Z"/><path d="M517.14,158.73q9.66,0,14.6,6.84t4.93,17.27a61.9,61.9,0,0,1-5.18,24.68q-5.19,12-14,19.1a29.82,29.82,0,0,1-19,7.07q-9.86,0-14.49-7.05t-4.62-18a60.71,60.71,0,0,1,5-23.06q5-12.21,13.62-19.53A28.79,28.79,0,0,1,517.14,158.73Zm-14.69,69a9.76,9.76,0,0,0,6.89-2.93q3.11-2.93,6.73-10.05a69.83,69.83,0,0,0,5.7-16.11A79.11,79.11,0,0,0,523.83,181q0-7.92-2.43-12.44c-1.63-3-4-4.52-7.1-4.52q-5.7,0-10.76,7.19t-8.28,18.82a77,77,0,0,0-3.22,20Q492,227.77,502.45,227.77Z"/><path d="M612.78,160.43l-.83,3.65a19.28,19.28,0,0,0-4,.9c-2.05.6-3.37,1.39-4,2.39a30.4,30.4,0,0,0-2.21,6.78l-8.34,35.17-5.28,23.85c-2.34.31-3.58.48-3.72.52l-8.17-24.48Q572,196.37,569.1,188t-4.33-13h-.17q-2.1,8.63-4.33,19.12l-4.17,19.33q-1.9,8.79-2,9.62a8.81,8.81,0,0,0-.13,1.44,2,2,0,0,0,.85,1.72,22.45,22.45,0,0,0,5.22,1.93,3,3,0,0,1,.62.2c.39.1.61.16.66.16l-.87,3.54q-5.73-.51-10.4-.51-3.84,0-11.64.51l.91-3.54c.08,0,.36-.12.82-.26a41,41,0,0,0,5.74-1.7A4.28,4.28,0,0,0,547.8,224q.75-2.06,4-15.19t6.33-26.56q3.08-13.41,3.08-14.44a1.75,1.75,0,0,0-.52-1.39c-.34-.31-1.85-.77-4.52-1.39a40.91,40.91,0,0,0-4.54-.92l.87-3.65q8,.62,10.65.61a68,68,0,0,0,9-.61L588.59,209,594,184.43q3.34-15.42,3.35-16.55a2,2,0,0,0-1.12-1.77,30.47,30.47,0,0,0-6.31-2l.74-3.65q7.8.62,11.19.61A72.83,72.83,0,0,0,612.78,160.43Z"/><path d="M657.43,163.46a142,142,0,0,0-3.3,16.5c-.14.93-.22,1.42-.25,1.49l-4-.31q-.09-8.79-.77-11.72a6,6,0,0,0-3.09-4.19,10.19,10.19,0,0,0-4.73-1.26,7.84,7.84,0,0,0-6.27,2.86,10.32,10.32,0,0,0-2.44,7,12.9,12.9,0,0,0,1.63,6.07,74.06,74.06,0,0,0,6.79,9.61,51.08,51.08,0,0,1,7.06,10.72,23.28,23.28,0,0,1,1.94,9.49,25.1,25.1,0,0,1-6.19,16.71q-6.19,7.29-17.42,7.3a34.08,34.08,0,0,1-16.64-4.42,164.89,164.89,0,0,0,4.62-21.39h4.17q-.07,5-.08,6.89a21.73,21.73,0,0,0,.72,6.35,10.23,10.23,0,0,0,2.25,3.85,7.7,7.7,0,0,0,3.22,2.16,10.76,10.76,0,0,0,3.27.54A8.31,8.31,0,0,0,635,224a15.47,15.47,0,0,0,2.66-9.25,21.11,21.11,0,0,0-1.28-7.23c-.86-2.34-3.08-5.83-6.69-10.46a64.47,64.47,0,0,1-6.87-10.13,17.85,17.85,0,0,1-1.84-8.07,19.8,19.8,0,0,1,5.76-14q5.76-6.09,15.21-6.09A28,28,0,0,1,657.43,163.46Z"/><path d="M718.06,160.43q-2,7.5-3.92,18.92h-3.22c-.14-6.65-.28-10.3-.41-10.93a2.21,2.21,0,0,0-1.35-1.49,11.74,11.74,0,0,0-4.39-.54H692.09l-5.94,25.4h6.19a10.81,10.81,0,0,0,3.78-.52,6.76,6.76,0,0,0,2.77-2.85,38,38,0,0,0,3-6.35h3.38q-4.37,17.22-6,26.68h-3.39q.33-5.76.33-8.53a3,3,0,0,0-.91-2.5c-.6-.46-1.94-.69-4-.69h-6.4l-2.31,10-4.05,18.81h15.32a15,15,0,0,0,5.06-.61,8.06,8.06,0,0,0,3.26-3.32q1.71-2.7,5.38-10.15h3.55q-2.39,7.61-5.69,20.3l-27.37-.51q-9.94,0-21.22.51l.74-3.54c4.32-.89,6.88-1.62,7.66-2.19s2-4.19,3.61-10.87l6.61-28.18q4.13-18.13,4.13-19.74a1.78,1.78,0,0,0-.66-1.51q-.67-.5-7.15-2l.79-3.65q7.84.62,19.44.61Q705,161,718.06,160.43Z"/><path d="M776.87,228.55l-.86,3.54q-8.18-.51-11-.51a70.41,70.41,0,0,0-9.12.51q-1.65-9.81-7.43-34.75a32.77,32.77,0,0,1-3.92-.21q-5.91,27-5.9,28c0,1,.74,1.6,2.25,1.93s3.4.82,5.71,1.47l-.86,3.54q-6.81-.51-14.37-.51-8.29,0-14.61.51l.82-3.54q7.23-1.76,7.8-2.34a6,6,0,0,0,1.12-2.14q1.11-3.18,3.67-14l6.32-27.71q3.09-13.78,3.1-14.6a1.78,1.78,0,0,0-.58-1.42,14.69,14.69,0,0,0-3.86-1.38q-3.28-.9-3.45-.9l.87-3.65q11,.62,14.86.61l14.2-.61q6.57,0,10,3.49T775,174a23.89,23.89,0,0,1-3.76,12.57q-3.76,6.13-12.06,9.54l6.86,23.54a14.46,14.46,0,0,0,2.08,4.55,8.34,8.34,0,0,0,3.86,2.62c1.76.67,3.19,1.18,4.29,1.52A2.63,2.63,0,0,1,776.87,228.55Zm-31-37a19.36,19.36,0,0,0,3.14.21A12.3,12.3,0,0,0,759.27,187,18.24,18.24,0,0,0,763,175.44q0-9.36-7-9.36a26.24,26.24,0,0,0-4.58.51Z"/><path d="M847.57,160.43l-.74,3.54a2.88,2.88,0,0,1-.54.21c-.9.31-1.95.64-3.13,1a6.47,6.47,0,0,0-3,1.83q-1.17,1.28-10.71,15.83L812,209.94q-8,12.54-14.41,23.75h-3.72q1.13-14.44,2.34-37.25t1.22-26.76a5,5,0,0,0-.44-2.49c-.29-.47-1.23-1-2.83-1.52l-5.2-1.7.83-3.54q9.54.62,14.65.61,7.64,0,14.86-.61l-.82,3.54-2,.77a18,18,0,0,0-5,2.14,5.5,5.5,0,0,0-1.73,3.39q-.49,2.44-1.28,13.8l-1.82,25.71.17.21,22.66-38.41q2.19-3.65,2.19-4.52a1.93,1.93,0,0,0-.83-1.67,11.33,11.33,0,0,0-3.63-1.21,2,2,0,0,1-.95-.21l.95-3.54q7,.62,10.65.61Q840.52,161,847.57,160.43Z"/><path d="M885.37,228.55l-.78,3.54q-7.19-.51-13.83-.51-7.31,0-15.81.51l.82-3.54a1.81,1.81,0,0,1,.54-.21c4.16-1.34,6.6-2.49,7.33-3.47s1.38-4.77,2-11.39a29.35,29.35,0,0,1,.33-3.29H851.19q-4.55,7.51-6.52,11.05t-2,4.63a1.37,1.37,0,0,0,.64,1.36,19.05,19.05,0,0,0,3.57,1,4,4,0,0,1,.58.2,2.31,2.31,0,0,0,.53.16l-.86,3.54q-5.37-.51-9.95-.51c-2.86,0-6.39.17-10.57.51l.83-3.54,2.84-.93a8.92,8.92,0,0,0,3.43-1.8q1.15-1.08,7.29-10.26t19.56-30.66q13.44-21.5,16-26.17h3.72q-1.2,14.34-2.25,36.78T877,222.74a5,5,0,0,0,.4,2.31,4.21,4.21,0,0,0,2,1.44Q881.08,227.21,885.37,228.55Zm-17.09-46.79-.16-.2Q855.57,203.15,854.41,205h11.93l1.12-13.78C867.81,186.2,868.09,183.06,868.28,181.76Z"/><path d="M957.07,160.43A204.11,204.11,0,0,0,952.65,182h-3.39q-.24-3.75-.24-7.46a23.67,23.67,0,0,0-.44-5.58,2.46,2.46,0,0,0-1.71-1.87,21.37,21.37,0,0,0-4.87-.36h-5.49q-3.79,15.63-8.28,36.37T923.75,225a1.61,1.61,0,0,0,.68,1.46,41,41,0,0,0,6.5,1.78,3.58,3.58,0,0,1,.58.15,4.65,4.65,0,0,0,.87.21l-.87,3.54q-10.93-.51-15.48-.51-7.1,0-15.36.51l.83-3.54a14.91,14.91,0,0,1,2-.47,31.89,31.89,0,0,0,5.8-1.62A3.86,3.86,0,0,0,911.1,224q.6-1.89,2.83-11l5.65-23.34q3.39-14.25,5.24-22.93h-5.24a20.2,20.2,0,0,0-5,.43,5.63,5.63,0,0,0-2.87,2.32,36.18,36.18,0,0,0-3.37,7q-2,5.12-2.1,5.53h-3.72q3.13-12,4.79-21.54,9.09.62,24.36.61Q948.11,161,957.07,160.43Z"/><path d="M997.84,158.73q9.66,0,14.59,6.84t4.93,17.27a61.73,61.73,0,0,1-5.18,24.68,48.53,48.53,0,0,1-14,19.1,29.79,29.79,0,0,1-19,7.07q-9.87,0-14.49-7.05t-4.63-18a60.9,60.9,0,0,1,5-23.06,50,50,0,0,1,13.62-19.53A28.8,28.8,0,0,1,997.84,158.73Zm-14.7,69a9.8,9.8,0,0,0,6.9-2.93q3.09-2.93,6.72-10.05a68.91,68.91,0,0,0,5.7-16.11,78.55,78.55,0,0,0,2.07-17.64q0-7.92-2.44-12.44c-1.62-3-4-4.52-7.1-4.52q-5.7,0-10.75,7.19T976,190.09a76.57,76.57,0,0,0-3.22,20Q972.74,227.77,983.14,227.77Z"/><path d="M1078.94,228.55l-.86,3.54q-8.17-.51-11-.51a70.41,70.41,0,0,0-9.12.51q-1.65-9.81-7.43-34.75a32.77,32.77,0,0,1-3.92-.21q-5.91,27-5.9,28c0,1,.74,1.6,2.25,1.93s3.4.82,5.71,1.47l-.86,3.54c-4.55-.34-9.33-.51-14.37-.51q-8.29,0-14.61.51l.82-3.54q7.23-1.76,7.8-2.34a6,6,0,0,0,1.12-2.14q1.11-3.18,3.67-14l6.32-27.71q3.09-13.78,3.09-14.6a1.77,1.77,0,0,0-.57-1.42,14.85,14.85,0,0,0-3.86-1.38q-3.29-.9-3.45-.9l.87-3.65q11,.62,14.86.61l14.2-.61q6.57,0,10,3.49t3.4,10.08a23.88,23.88,0,0,1-3.75,12.57q-3.76,6.13-12.06,9.54l6.86,23.54a14.24,14.24,0,0,0,2.08,4.55,8.34,8.34,0,0,0,3.86,2.62c1.76.67,3.19,1.18,4.29,1.52A2.88,2.88,0,0,1,1078.94,228.55Zm-31-37a19.36,19.36,0,0,0,3.14.21,12.3,12.3,0,0,0,10.22-4.78,18.24,18.24,0,0,0,3.73-11.57q0-9.36-7-9.36a26.14,26.14,0,0,0-4.58.51Z"/><path d="M1148,160.43l-.74,3.65a19.37,19.37,0,0,0-4.83,1.59,12.65,12.65,0,0,0-3.68,3.65q-1.28,1.76-5.65,8.69l-14,22.16-4.63,21.54a21.89,21.89,0,0,0-.66,3.34,1.59,1.59,0,0,0,.56,1.41,20,20,0,0,0,4.29,1.24c2.49.56,3.78.85,3.86.85l-1,3.54q-6.81-.51-14.94-.51-8.39,0-15.81.51l.82-3.54a30.47,30.47,0,0,0,4.44-1c2.49-.63,3.91-1.17,4.27-1.61s1-2.34,2-5.66,2.09-7.75,3.37-13.26,1.92-8.4,1.92-8.64l-5.9-26.43a15.68,15.68,0,0,1-.42-1.8,7.76,7.76,0,0,0-1.22-3.41,12.24,12.24,0,0,0-4-1.68c-2.23-.68-3.43-1-3.59-1l.91-3.65q9.86.62,14.65.61,5.65,0,14.45-.61l-.78,3.65a31.48,31.48,0,0,0-6.69,2.46,3,3,0,0,0-1.82,2.47q0,.68,4.38,23.5l9.49-16.2q3.48-5.91,4.09-7.3a5.88,5.88,0,0,0,.62-2.21c0-.62-.45-1.12-1.34-1.52a26,26,0,0,0-3.74-1.2l.7-3.65q7.07.62,10.12.61Q1139.86,161,1148,160.43Z"/><path d="M906.42,277.68a21.41,21.41,0,0,1-.55,4.83c-.36,1.55-.73,2.33-1.12,2.33s-.44-.12-.44-.35l.12-.51a15.59,15.59,0,0,0,1-6,18.48,18.48,0,0,0-6.78-14.44A24.35,24.35,0,0,0,882,257.6q-15.81,0-32.39,15.5A123.94,123.94,0,0,0,838.39,285q-4.54,5.43-17.79,23.05Q801,333.94,788.48,340.4q-5.64,2.88-7.23,2.88-.39,0-.39-.45l1.35-1a32.64,32.64,0,0,0,10-12.55Q795.66,322,804.61,295q7.62-23.06,17.41-33a1,1,0,0,0,.38-.64c-.55-.17-1.81.74-3.77,2.75q-9.54,9.46-22.41,34.05-8,15.11-13.93,22.89A66.58,66.58,0,0,1,768,334.67q-13.57,9.74-27.27,9.73-8.91,0-14.51-3.74t-5.6-9.64a8.39,8.39,0,0,1,1.92-5.6,6,6,0,0,1,4.8-2.27c2.78,0,4.16,1.37,4.16,4.1a5.22,5.22,0,0,1-1.35,3.61,4.24,4.24,0,0,1-3.29,1.51c-2.1,0-3.16-1.16-3.16-3.46,0-.85-.17-1.28-.51-1.28-.69,0-1,1.17-1,3.52q0,5.25,5.22,8.61t13.42,3.36q16.73,0,32.8-17.35a114.05,114.05,0,0,0,11-13.6q4.49-6.62,17.88-28.83a103.58,103.58,0,0,1,12.71-17.1q7.08-7.68,10.09-7.68.45,0,.45.39a1.51,1.51,0,0,1-.25.51q-6,6.53-10.76,24.65-7.17,26.58-13.5,38.68-6.29,11.79-16.13,17.87c-.17,0-.26.12-.26.25a.68.68,0,0,0,.26.13q1.47,0,7.16-4.1A69.7,69.7,0,0,0,805,325.29q5.82-6.8,21.12-27.79a253.42,253.42,0,0,1,17.18-21.74,81.24,81.24,0,0,1,14.11-12.14q12.09-8.13,24.38-8.13,10.76,0,17.69,6.27A20.5,20.5,0,0,1,906.42,277.68ZM805,274.09c0,.94-1.21,2.78-3.65,5.52q-5.51,6.22-10.64,6.22a7.85,7.85,0,0,1-6-2.59,8.93,8.93,0,0,1-2.44-6.37q0-3.64,2.63-8.77,3.26-6.41,3.26-9a6,6,0,0,0-3.07-5.25,14.62,14.62,0,0,0-8.07-2q-14.26,0-26.82,11.52t-12.54,24.52a15.09,15.09,0,0,0,4.13,11,14.11,14.11,0,0,0,10.6,4.25,23.86,23.86,0,0,0,11.69-3.29,28.34,28.34,0,0,0,9.58-8.48c.17-.22.3-.32.39-.32q.51,0,.51.57,0,1.29-4.1,4.93-8.46,7.62-18.32,7.62a15,15,0,0,1-11.28-4.48A16,16,0,0,1,736.54,288q0-13.89,12.83-25.54t28.07-11.65q6.27,0,9.82,3.13a11,11,0,0,1,3.56,8.65q0,4.09-4.1,12.48a11.74,11.74,0,0,0-1.41,4.67c0,3.24,1.75,4.87,5.26,4.87q3.13,0,7-3a23.23,23.23,0,0,0,6.25-7.39c.21-.42.43-.64.64-.64A.45.45,0,0,1,805,274.09Zm70.64-13.77c0,.22-.58.62-1.73,1.22A40.45,40.45,0,0,0,860.73,273q-5.68,7.49-13,23-10.62,22.53-19,32.39a46.8,46.8,0,0,1-20.64,14.14,62.6,62.6,0,0,0,8.77.87q9.86,0,15.78-4.2t16.74-18.81q.71-.9,1.08-.9c.18,0,.26.17.26.38q0,.64-6,8.27-7.37,9.36-13.16,12.76a27.83,27.83,0,0,1-14.25,3.39A59.57,59.57,0,0,1,806,343.09a27.37,27.37,0,0,1-8.77,1.44c-2.26,0-3.4-.44-3.4-1.31q0-1.61,4.74-1.6a48.58,48.58,0,0,1,6.91.64h.84a27.66,27.66,0,0,0,11.49-7.72q4.69-5.28,11.29-17.82,13.38-25.41,21.19-36a75.15,75.15,0,0,1,18.11-17.28q5.33-3.52,6.85-3.52A.34.34,0,0,1,875.63,260.32Z"/><path d="M497.58,100.44q0,7.52-10.4,15.6,9.48,14,9.48,25.76c0,1.93-.58,2.89-1.73,2.89-.93,0-1.39-1.27-1.39-3.81q0-11.55-8.09-23.45Q468.69,129.91,439.87,139T388.75,148a53.63,53.63,0,0,1-5.43-.23q-18.48,25.77-18.48,49.68,0,16.29,10.1,25.76t27.56,9.48q32.92,0,58.69-31.54,15.6-19.06,15.6-36.16,0-9-5.42-14.33T457,145.39q-14.42,0-31,15.19t-16.55,28.36c0,.77.23,1.16.69,1.16a1.72,1.72,0,0,0,.91-.46c2.07-1.85,4-2.78,5.73-2.78q5.83,0,5.84,6.36,0,8.55-8.32,8.55-7.62,0-7.62-9.25,0-16.52,16.75-32.75t34-16.23q22.19,0,22.18,24.37,0,25.2-24.09,45.93T402,234.58q-20.46,0-34.37-13.75t-13.92-34q0-19.63,13.74-40.32-50-9.24-50-39.51,0-18,18.6-30.15T382.4,64.74q38.7,0,78.21,25.77a69.56,69.56,0,0,1,14-1.39Q497.59,89.12,497.58,100.44ZM457.38,91a146.79,146.79,0,0,0-74.75-20.33q-24.5,0-42.81,11.55t-18.31,27q0,27.61,46.91,35.7Q397.54,104.38,457.38,91Zm27.15,24.84a87,87,0,0,0-23.92-22.76,136.06,136.06,0,0,0-42.17,20.28,138.62,138.62,0,0,0-33.73,32.75q24.14,0,53.43-8.84T484.53,115.81Zm11.2-15.37q0-9.47-18.48-9.47a70.51,70.51,0,0,0-13.75,1.62,91.38,91.38,0,0,1,22.76,22.07Q495.73,106.56,495.73,100.44Z"/></g></g></svg>